<?xml version="1.0" standalone="no"?><!DOCTYPE svg PUBLIC "-//W3C//DTD SVG 1.1//EN" "http://www.w3.org/Graphics/SVG/1.1/DTD/svg11.dtd"><svg t="1652517754989" class="icon" viewBox="0 0 1024 1024" version="1.1" xmlns="http://www.w3.org/2000/svg" p-id="34986" xmlns:xlink="http://www.w3.org/1999/xlink" width="200" height="200"><defs><style type="text/css">@font-face { font-family: feedback-iconfont; src: url("//at.alicdn.com/t/font_1031158_u69w8yhxdu.woff2?t=1630033759944") format("woff2"), url("//at.alicdn.com/t/font_1031158_u69w8yhxdu.woff?t=1630033759944") format("woff"), url("//at.alicdn.com/t/font_1031158_u69w8yhxdu.ttf?t=1630033759944") format("truetype"); }
</style></defs><path d="M955.196806 873.904287c-0.255489-3.709701-0.800192-9.350898-1.754699-16.684455-1.781269-13.690124-4.458794-28.86515-8.214483-45.165349-10.719297-46.530683-27.976048-93.082826-53.345086-136.734659-66.635625-114.658363-175.733525-187.866188-333.443832-199.762778 92.692439-21.116679 161.863537-103.975856 161.863537-202.980918C720.302244 157.594826 627.005828 64.383234 511.919265 64.383234s-208.382978 93.211593-208.382978 208.193916c0 99.006084 69.173142 181.86424 161.865581 202.980918-157.714395 11.899657-266.816383 85.12792-333.45814 199.818986-25.37006 43.663074-42.629876 90.227481-53.351218 136.770427-3.755689 16.305309-6.434236 31.483401-8.216527 45.176591-0.98721 7.58087-1.536 13.346747-1.779226 17.04725C62.537581 920.815138 96.654563 959.616766 143.817836 959.616766l312.491689 0 111.221525 0 312.491689 0C927.396535 959.616766 962.228886 920.395114 955.196806 873.904287zM359.10515 272.57715c0-84.320575 68.416894-152.67513 152.814116-152.67513s152.814116 68.355577 152.814116 152.67513c0 84.320575-68.416894 152.67513-152.814116 152.67513S359.10515 356.897725 359.10515 272.57715zM880.020695 904.09798 567.530028 904.09798c-55.597477 0-55.597477 0-111.221525 0L143.817836 904.09798c-13.765749 0-22.042571-9.538938-20.058954-23.026715l0.183952-1.249852 0.069493-1.262116c0.022483-0.415936 0.102196-1.515561 0.258555-3.251864 0.27695-3.078132 0.673469-6.701988 1.211018-10.824559 1.558483-11.971194 3.925333-25.391521 7.265086-39.884902 9.549158-41.452583 24.90507-82.882683 47.256271-121.34911 63.339816-109.00899 169.315641-173.900136 331.91703-173.900136 162.603433 0 268.57517 64.87275 331.907832 173.848016 22.348136 38.453142 37.700982 79.869956 47.247074 121.309253 3.337709 14.488271 5.704559 27.904511 7.26202 39.871617 0.536527 4.120527 0.933046 7.743361 1.209996 10.820471 0.156359 1.735281 0.23505 2.833884 0.258555 3.24982l0.087888 1.607537 0.273884 1.586076C902.380072 894.470132 893.967329 904.09798 880.020695 904.09798z" p-id="34987" fill="#2c2c2c"></path></svg>