<?xml version="1.0" standalone="no"?><!DOCTYPE svg PUBLIC "-//W3C//DTD SVG 1.1//EN" "http://www.w3.org/Graphics/SVG/1.1/DTD/svg11.dtd"><svg t="1652517628803" class="icon" viewBox="0 0 1499 1024" version="1.1" xmlns="http://www.w3.org/2000/svg" p-id="32758" xmlns:xlink="http://www.w3.org/1999/xlink" width="292.7734375" height="200"><defs><style type="text/css">@font-face { font-family: feedback-iconfont; src: url("//at.alicdn.com/t/font_1031158_u69w8yhxdu.woff2?t=1630033759944") format("woff2"), url("//at.alicdn.com/t/font_1031158_u69w8yhxdu.woff?t=1630033759944") format("woff"), url("//at.alicdn.com/t/font_1031158_u69w8yhxdu.ttf?t=1630033759944") format("truetype"); }
</style></defs><path d="M0 0v886.345818h516.46588a49.387378 49.387378 0 1 0 0-98.774756H98.774756V98.774756h1301.935352v688.796306h-415.589533a49.387378 49.387378 0 0 0 0 98.774756h514.364289V0z" p-id="32759" fill="#d81e06"></path><path d="M773.910723 757.097999a27.320677 27.320677 0 0 0-24.168291-13.660339 26.79528 26.79528 0 0 0-24.168291 13.660339l-129.773217 225.395587a27.846075 27.846075 0 0 0 23.642893 41.506414h260.071832a27.846075 27.846075 0 0 0 24.168291-41.506414z" p-id="32760" fill="#d81e06"></path></svg>