<?xml version="1.0" standalone="no"?><!DOCTYPE svg PUBLIC "-//W3C//DTD SVG 1.1//EN" "http://www.w3.org/Graphics/SVG/1.1/DTD/svg11.dtd"><svg t="1652517402064" class="icon" viewBox="0 0 1024 1024" version="1.1" xmlns="http://www.w3.org/2000/svg" p-id="25196" xmlns:xlink="http://www.w3.org/1999/xlink" width="200" height="200"><defs><style type="text/css">@font-face { font-family: feedback-iconfont; src: url("//at.alicdn.com/t/font_1031158_u69w8yhxdu.woff2?t=1630033759944") format("woff2"), url("//at.alicdn.com/t/font_1031158_u69w8yhxdu.woff?t=1630033759944") format("woff"), url("//at.alicdn.com/t/font_1031158_u69w8yhxdu.ttf?t=1630033759944") format("truetype"); }
</style></defs><path d="M224 938.713333a53.58 53.58 0 0 1-53.333333-53.433333V138.72a53.333333 53.333333 0 0 1 80.886666-45.666667l618.666667 373.28a53.333333 53.333333 0 0 1 0 91.333334l-618.666667 373.28a53.16 53.16 0 0 1-27.553333 7.766666z m0.046667-810.666666a10.98 10.98 0 0 0-5.333334 1.42 10.466667 10.466667 0 0 0-5.38 9.253333v746.56a10.666667 10.666667 0 0 0 16.18 9.133333l618.666667-373.28a10.666667 10.666667 0 0 0 0-18.266666l-618.666667-373.28a10.386667 10.386667 0 0 0-5.446666-1.586667z" fill="#2c2c2c" p-id="25197"></path></svg>